<?xml version="1.0" encoding="UTF-8"?>
<svg width="108px" height="108px" viewBox="0 0 108 108" version="1.1" xmlns="http://www.w3.org/2000/svg" xmlns:xlink="http://www.w3.org/1999/xlink">
    <title>编组</title>
    <g id="登录" stroke="none" stroke-width="1" fill="none" fill-rule="evenodd">
        <g transform="translate(-1171.000000, -236.000000)" id="编组-9">
            <g transform="translate(1010.000000, 244.000000)">
                <g id="编组" transform="translate(169.000000, 0.000000)">
                    <circle id="椭圆形" stroke-opacity="0.4" stroke="#9ABAFB" stroke-width="8" fill="#FFFFFF" cx="46" cy="46" r="50"></circle>
                    <g id="logo" transform="translate(15.000000, 15.000000)" fill-rule="nonzero">
                        <path d="M31,0 C48.1208272,0 62,13.8791728 62,31 C62,48.1208272 48.1208272,62 31,62 C14.050381,62 0.277907621,48.3970228 0.00415311431,31.5126417 L0,31 L0,27 L7.5,27 L7.29411765,31 C7.29411765,44.0923973 17.9076027,54.7058824 31,54.7058824 C44.0923973,54.7058824 54.7058824,44.0923973 54.7058824,31 C54.7058824,18.0385267 44.3036057,7.50663524 31.3920201,7.29729356 L31,7.29411765 L27,7.5 L27,0 L31,0 Z M17,3 L17,10 L10,10 L10,17 L3,17 L3,10 L9.999,9.999 L10,3 L17,3 Z M6,3 L6,6 L3,6 L3,3 L6,3 Z" id="形状结合" fill="#0A7CC0"></path>
                        <path d="M34.5820336,20 C40.8479091,20 46,24.880953 46,31 C46,37.0277179 41.0005552,41.8540241 34.8618374,41.9967502 L34.5820336,42 L19.100199,42 L19.100199,28.6428571 L24.5195538,28.6428571 L24.5194839,36.5 L34.5820336,36.5 C37.8605566,36.5 40.4627146,34.103807 40.5767471,31.1988327 L40.5806452,31 C40.5806452,28.0728742 38.0513432,25.6116339 34.8044999,25.503691 L34.5820336,25.5 L18,25.5 L18,20 L34.5820336,20 Z" id="形状" fill="#87B929"></path>
                    </g>
                </g>
            </g>
        </g>
    </g>
</svg>